<?xml version="1.0" encoding="UTF-8" standalone="no" ?>
<!DOCTYPE svg PUBLIC "-//W3C//DTD SVG 1.1//EN" "http://www.w3.org/Graphics/SVG/1.1/DTD/svg11.dtd">
<svg xmlns="http://www.w3.org/2000/svg" xmlns:xlink="http://www.w3.org/1999/xlink" version="1.1" width="139.28" height="139.28" xml:space="preserve">
<desc>Created with Fabric.js 1.6.0-rc.1</desc>
<defs></defs>
<g style="stroke: none; stroke-width: 1; stroke-dasharray: none; stroke-linecap: butt; stroke-linejoin: miter; stroke-miterlimit: 10; fill: none; fill-rule: nonzero; opacity: 1;" transform="translate(9.999999999999993 9.999999999999993) scale(0.24 0.24)" >
  <path d="M 264 8 c 19.336 0 38.104 2.448 56 7.056 C 416.616 39.928 488 127.624 488 232 H 264 V 8 z" style="stroke: none; stroke-width: 1; stroke-dasharray: none; stroke-linecap: butt; stroke-linejoin: miter; stroke-miterlimit: 10; fill: #fffff3; fill-rule: nonzero; opacity: 1;" transform=" matrix(1 0 0 1 0 0) " stroke-linecap="round" />
  <path d="M 240 32 h -8 C 104.08 32 0 136.08 0 264 s 104.08 232 232 232 s 232 -104.08 232 -232 v -8 H 240 V 32 z M 407.8 272 c -4.2 93.344 -81.432 168 -175.8 168 c -47.208 0 -90.088 -18.432 -121.712 -48.64 C 124.936 388.432 136 375.496 136 360 c 0 -17.648 -14.352 -32 -32 -32 v 16 c 8.824 0 16 7.176 16 16 s -7.176 16 -16 16 v 8.776 c -28.032 -29.696 -45.952 -69.12 -47.832 -113.12 l -15.984 0.688 C 44.584 375.328 128.84 456 232 456 c 103.184 0 187.584 -81.832 191.8 -184 h 24.056 C 443.632 387.416 348.432 480 232 480 c -119.104 0 -216 -96.896 -216 -216 c 0 -116.432 92.584 -211.632 208 -215.848 V 72.2 c -99.48 4.04 -179.528 83.152 -183.824 183.456 l 15.984 0.688 C 60.088 164.64 133.144 92.448 224 88.392 V 272 H 407.8 z" style="stroke: none; stroke-width: 1; stroke-dasharray: none; stroke-linecap: butt; stroke-linejoin: miter; stroke-miterlimit: 10; fill: #fffff8; fill-rule: nonzero; opacity: 1;" transform=" matrix(1 0 0 1 0 0) " stroke-linecap="round" />
  <path d="M 321.992 7.304 C 303.168 2.464 283.656 0 264 0 h -8 v 240 h 240 v -8 C 496 126.072 424.448 33.68 321.992 7.304 z M 318.008 22.808 C 353.712 32 385.32 49.864 410.976 73.72 L 393.96 90.736 c -20.296 -18.68 -44.584 -33.088 -71.536 -41.68 c -16.296 -5.2 -33.232 -8.04 -50.424 -8.752 v -24.16 C 287.592 16.712 303.032 18.944 318.008 22.808 z M 322.344 162.344 L 272 212.688 V 56.304 c 15.536 0.696 30.84 3.288 45.56 7.992 c 24.488 7.808 46.584 20.848 65.088 37.744 l -44.304 44.304 l 11.312 11.312 l 44.304 -44.304 c 16.896 18.504 29.928 40.592 37.744 65.08 c 4.704 14.728 7.296 30.032 7.992 45.568 H 283.312 l 50.344 -50.344 L 322.344 162.344 z M 455.696 224 c -0.704 -17.192 -3.544 -34.136 -8.744 -50.432 c -8.608 -26.944 -23.008 -51.232 -41.68 -71.528 l 17.032 -17.032 c 34.392 37.088 55.608 85.976 57.552 138.992 H 455.696 z" style="stroke: none; stroke-width: 1; stroke-dasharray: none; stroke-linecap: butt; stroke-linejoin: miter; stroke-miterlimit: 10; fill: #fffff8; fill-rule: nonzero; opacity: 1;" transform=" matrix(1 0 0 1 0 0) " stroke-linecap="round" />
  <path d="M 200 280 c 0 -22.056 -17.944 -40 -40 -40 s -40 17.944 -40 40 s 17.944 40 40 40 S 200 302.056 200 280 z M 160 304 c -13.232 0 -24 -10.768 -24 -24 s 10.768 -24 24 -24 s 24 10.768 24 24 S 173.232 304 160 304 z" style="stroke: none; stroke-width: 1; stroke-dasharray: none; stroke-linecap: butt; stroke-linejoin: miter; stroke-miterlimit: 10; fill: #fffff8; fill-rule: nonzero; opacity: 1;" transform=" matrix(1 0 0 1 0 0) " stroke-linecap="round" />
  <path d="M 216 376 c 0 -13.232 -10.768 -24 -24 -24 s -24 10.768 -24 24 s 10.768 24 24 24 v -16 c -4.416 0 -8 -3.584 -8 -8 s 3.584 -8 8 -8 s 8 3.584 8 8 H 216 z" style="stroke: none; stroke-width: 1; stroke-dasharray: none; stroke-linecap: butt; stroke-linejoin: miter; stroke-miterlimit: 10; fill: #fffff8; fill-rule: nonzero; opacity: 1;" transform=" matrix(1 0 0 1 0 0) " stroke-linecap="round" />
  <path d="M 336 344 c 17.648 0 32 -14.352 32 -32 h -16 c 0 8.824 -7.176 16 -16 16 s -15.992 -7.176 -15.992 -16 s 7.168 -16 15.992 -16 v -16 c -17.64 0 -31.992 14.352 -31.992 32 S 318.36 344 336 344 z" style="stroke: none; stroke-width: 1; stroke-dasharray: none; stroke-linecap: butt; stroke-linejoin: miter; stroke-miterlimit: 10; fill: #fffff8; fill-rule: nonzero; opacity: 1;" transform=" matrix(1 0 0 1 0 0) " stroke-linecap="round" />
  <path d="M 176 200 c 17.648 0 32 -14.352 32 -32 s -14.352 -32 -32 -32 v 16 c 8.824 0 16 7.176 16 16 s -7.176 16 -16 16 s -16 -7.176 -16 -16 h -16 C 144 185.648 158.352 200 176 200 z" style="stroke: none; stroke-width: 1; stroke-dasharray: none; stroke-linecap: butt; stroke-linejoin: miter; stroke-miterlimit: 10; fill: #fffff8; fill-rule: nonzero; opacity: 1;" transform=" matrix(1 0 0 1 0 0) " stroke-linecap="round" />
  <path d="M 128 216 c 0 -13.232 -10.768 -24 -24 -24 s -24 10.768 -24 24 s 10.768 24 24 24 S 128 229.232 128 216 z M 104 224 c -4.416 0 -8 -3.584 -8 -8 s 3.584 -8 8 -8 s 8 3.584 8 8 S 108.416 224 104 224 z" style="stroke: none; stroke-width: 1; stroke-dasharray: none; stroke-linecap: butt; stroke-linejoin: miter; stroke-miterlimit: 10; fill: #fffff8; fill-rule: nonzero; opacity: 1;" transform=" matrix(1 0 0 1 0 0) " stroke-linecap="round" />
  <path d="M 384 216 c 17.648 0 32 -14.352 32 -32 s -14.352 -32 -32 -32 s -32 14.352 -32 32 S 366.352 216 384 216 z M 384 168 c 8.824 0 16 7.176 16 16 s -7.176 16 -16 16 s -16 -7.176 -16 -16 S 375.176 168 384 168 z" style="stroke: none; stroke-width: 1; stroke-dasharray: none; stroke-linecap: butt; stroke-linejoin: miter; stroke-miterlimit: 10; fill: #fffff8; fill-rule: nonzero; opacity: 1;" transform=" matrix(1 0 0 1 0 0) " stroke-linecap="round" />
  <path d="M 344 120 c 0 -17.648 -14.352 -32 -32 -32 s -32 14.352 -32 32 h 16 c 0 -8.824 7.176 -16 16 -16 s 16 7.176 16 16 s -7.176 16 -16 16 v 16 C 329.648 152 344 137.648 344 120 z" style="stroke: none; stroke-width: 1; stroke-dasharray: none; stroke-linecap: butt; stroke-linejoin: miter; stroke-miterlimit: 10; fill: #fffff8; fill-rule: nonzero; opacity: 1;" transform=" matrix(1 0 0 1 0 0) " stroke-linecap="round" />
  <path d="M 248 376 c 0 17.648 14.352 32 32 32 s 32 -14.352 32 -32 s -14.352 -32 -32 -32 S 248 358.352 248 376 z M 280 360 c 8.824 0 16 7.176 16 16 s -7.176 16 -16 16 s -16 -7.176 -16 -16 S 271.176 360 280 360 z" style="stroke: none; stroke-width: 1; stroke-dasharray: none; stroke-linecap: butt; stroke-linejoin: miter; stroke-miterlimit: 10; fill: #fffff8; fill-rule: nonzero; opacity: 1;" transform=" matrix(1 0 0 1 0 0) " stroke-linecap="round" />
  <path d="M 216 304 c 0 13.232 10.768 24 24 24 s 24 -10.768 24 -24 s -10.768 -24 -24 -24 S 216 290.768 216 304 z M 240 296 c 4.416 0 8 3.584 8 8 s -3.584 8 -8 8 s -8 -3.584 -8 -8 S 235.584 296 240 296 z" style="stroke: none; stroke-width: 1; stroke-dasharray: none; stroke-linecap: butt; stroke-linejoin: miter; stroke-miterlimit: 10; fill: #fffff8; fill-rule: nonzero; opacity: 1;" transform=" matrix(1 0 0 1 0 0) " stroke-linecap="round" />
  <rect x="200" y="416" rx="0" ry="0" width="24" height="16" style="stroke: none; stroke-width: 1; stroke-dasharray: none; stroke-linecap: butt; stroke-linejoin: miter; stroke-miterlimit: 10; fill: #fffff8; fill-rule: nonzero; opacity: 1;" transform=" matrix(1 0 0 1 0 0) "/>
  <rect x="72" y="285.59" rx="0" ry="0" width="16" height="28.85" style="stroke: none; stroke-width: 1; stroke-dasharray: none; stroke-linecap: butt; stroke-linejoin: miter; stroke-miterlimit: 10; fill: #fffff8; fill-rule: nonzero; opacity: 1;" transform=" matrix(-0.8321 0.5547 -0.5547 -0.8321 312.9786 505.2768) "/>
  <rect x="332.71" y="367.99" rx="0" ry="0" width="22.62" height="16" style="stroke: none; stroke-width: 1; stroke-dasharray: none; stroke-linecap: butt; stroke-linejoin: miter; stroke-miterlimit: 10; fill: #fffff8; fill-rule: nonzero; opacity: 1;" transform=" matrix(-0.7071 0.7071 -0.7071 -0.7071 853.1515 398.5875) "/>
  <rect x="176" y="328" rx="0" ry="0" width="24" height="16" style="stroke: none; stroke-width: 1; stroke-dasharray: none; stroke-linecap: butt; stroke-linejoin: miter; stroke-miterlimit: 10; fill: #fffff8; fill-rule: nonzero; opacity: 1;" transform=" matrix(1 0 0 1 0 0) "/>
  <rect x="196.68" y="207.98" rx="0" ry="0" width="22.62" height="16" style="stroke: none; stroke-width: 1; stroke-dasharray: none; stroke-linecap: butt; stroke-linejoin: miter; stroke-miterlimit: 10; fill: #fffff8; fill-rule: nonzero; opacity: 1;" transform=" matrix(-0.7071 0.7071 -0.7071 -0.7071 507.79 221.6201) "/>
  <rect x="104" y="156.69" rx="0" ry="0" width="16" height="22.62" style="stroke: none; stroke-width: 1; stroke-dasharray: none; stroke-linecap: butt; stroke-linejoin: miter; stroke-miterlimit: 10; fill: #fffff8; fill-rule: nonzero; opacity: 1;" transform=" matrix(-0.7071 0.7071 -0.7071 -0.7071 309.9841 207.5956) "/>
  <rect x="176" y="103.99" rx="0" ry="0" width="24" height="16" style="stroke: none; stroke-width: 1; stroke-dasharray: none; stroke-linecap: butt; stroke-linejoin: miter; stroke-miterlimit: 10; fill: #fffff8; fill-rule: nonzero; opacity: 1;" transform=" matrix(1 0 0 1 0 0) "/>
  <rect x="280" y="159.99" rx="0" ry="0" width="16" height="24" style="stroke: none; stroke-width: 1; stroke-dasharray: none; stroke-linecap: butt; stroke-linejoin: miter; stroke-miterlimit: 10; fill: #fffff8; fill-rule: nonzero; opacity: 1;" transform=" matrix(1 0 0 1 0 0) "/>
  <rect x="327.99" y="196.65" rx="0" ry="0" width="16" height="22.62" style="stroke: none; stroke-width: 1; stroke-dasharray: none; stroke-linecap: butt; stroke-linejoin: miter; stroke-miterlimit: 10; fill: #fffff8; fill-rule: nonzero; opacity: 1;" transform=" matrix(-0.7071 0.7071 -0.7071 -0.7071 720.632 117.4355) "/>
  <rect x="336" y="76.7" rx="0" ry="0" width="16" height="22.62" style="stroke: none; stroke-width: 1; stroke-dasharray: none; stroke-linecap: butt; stroke-linejoin: miter; stroke-miterlimit: 10; fill: #fffff8; fill-rule: nonzero; opacity: 1;" transform=" matrix(-0.7071 0.7071 -0.7071 -0.7071 649.4692 -92.9948) "/>
  <rect x="376" y="280" rx="0" ry="0" width="16" height="24" style="stroke: none; stroke-width: 1; stroke-dasharray: none; stroke-linecap: butt; stroke-linejoin: miter; stroke-miterlimit: 10; fill: #fffff8; fill-rule: nonzero; opacity: 1;" transform=" matrix(1 0 0 1 0 0) "/>
</g>
</svg>